<mxfile host="app.diagrams.net" agent="Mozilla/5.0 (Windows NT 10.0; Win64; x64) AppleWebKit/537.36 (KHTML, like Gecko) Chrome/131.0.0.0 Safari/537.36 Edg/131.0.0.0" version="25.0.3">
  <diagram name="Página-1" id="Fe35ihLNycX_VQl5yag2">
    <mxGraphModel dx="1426" dy="783" grid="1" gridSize="10" guides="1" tooltips="1" connect="1" arrows="1" fold="1" page="1" pageScale="1" pageWidth="827" pageHeight="1169" math="0" shadow="0">
      <root>
        <mxCell id="0" />
        <mxCell id="1" parent="0" />
        <mxCell id="NwMDnGha9xEeuAbCb21C-125" value="&lt;span data-teams=&quot;true&quot;&gt;&lt;span style=&quot;font-family: -apple-system, BlinkMacSystemFont, &amp;quot;Segoe UI&amp;quot;, system-ui, &amp;quot;Apple Color Emoji&amp;quot;, &amp;quot;Segoe UI Emoji&amp;quot;, &amp;quot;Segoe UI Web&amp;quot;, sans-serif; white-space-collapse: preserve;&quot;&gt;&lt;p style=&quot;&quot;&gt;&lt;span data-teams=&quot;true&quot;&gt;&lt;/span&gt;&lt;/p&gt;&lt;p style=&quot;&quot;&gt;&lt;strong style=&quot;&quot;&gt;Exercício 5.&lt;/strong&gt; Pretende-se criar uma base de dados para uma biblioteca onde sejam registados os livros requisitados pelos sócios. Para cada livro pretende-se registar um código identificativo, o título, o(s) autor(es), a editora e o ano da publicação. Sobre cada autor, pretende-se registar o nome, a nacionalidade e a data de nascimento. Para cada editora pretende-se guardar o nome, a morada o(s) telefone(s) e o número de contribuinte. Sobre cada sócio, pretende-se registar o nome, o número de cartão de cidadão, e um e-mail e o(s) telefone(s). É ainda necessário registar as requisições de livros que vão sendo efetuadas e para cada uma destas pretende-se registar o livro requisitado, o sócio que o requisitou, a data da requisição e a data da devolução.&lt;/p&gt;&lt;/span&gt;&lt;/span&gt;" style="text;strokeColor=none;fillColor=none;spacingLeft=4;spacingRight=4;overflow=hidden;rotatable=0;points=[[0,0.5],[1,0.5]];portConstraint=eastwest;fontSize=14;whiteSpace=wrap;html=1;fontFamily=Helvetica;fontColor=default;labelBackgroundColor=default;" parent="1" vertex="1">
          <mxGeometry x="40" width="730" height="170" as="geometry" />
        </mxCell>
        <mxCell id="jHHYnB5XeiIA4RbSCAga-96" style="edgeStyle=none;shape=connector;rounded=0;orthogonalLoop=1;jettySize=auto;html=1;strokeColor=default;align=center;verticalAlign=middle;fontFamily=Helvetica;fontSize=11;fontColor=default;labelBackgroundColor=default;endArrow=ERmany;endFill=0;" edge="1" parent="1" source="jHHYnB5XeiIA4RbSCAga-95" target="jHHYnB5XeiIA4RbSCAga-33">
          <mxGeometry relative="1" as="geometry" />
        </mxCell>
        <mxCell id="jHHYnB5XeiIA4RbSCAga-99" style="shape=connector;rounded=0;orthogonalLoop=1;jettySize=auto;html=1;strokeColor=default;align=center;verticalAlign=middle;fontFamily=Helvetica;fontSize=11;fontColor=default;labelBackgroundColor=default;endArrow=ERmany;endFill=0;" edge="1" parent="1" source="jHHYnB5XeiIA4RbSCAga-98" target="jHHYnB5XeiIA4RbSCAga-33">
          <mxGeometry relative="1" as="geometry" />
        </mxCell>
        <mxCell id="jHHYnB5XeiIA4RbSCAga-33" value="Livro" style="whiteSpace=wrap;html=1;align=center;fontFamily=Helvetica;fontSize=11;fontColor=default;labelBackgroundColor=default;" vertex="1" parent="1">
          <mxGeometry x="374" y="480" width="120" height="40" as="geometry" />
        </mxCell>
        <mxCell id="jHHYnB5XeiIA4RbSCAga-34" value="Autor" style="whiteSpace=wrap;html=1;align=center;fontFamily=Helvetica;fontSize=11;fontColor=default;labelBackgroundColor=default;" vertex="1" parent="1">
          <mxGeometry x="190" y="300" width="120" height="40" as="geometry" />
        </mxCell>
        <mxCell id="jHHYnB5XeiIA4RbSCAga-35" value="Editora" style="whiteSpace=wrap;html=1;align=center;fontFamily=Helvetica;fontSize=11;fontColor=default;labelBackgroundColor=default;" vertex="1" parent="1">
          <mxGeometry x="530" y="290" width="120" height="40" as="geometry" />
        </mxCell>
        <mxCell id="jHHYnB5XeiIA4RbSCAga-36" value="Sócio" style="whiteSpace=wrap;html=1;align=center;fontFamily=Helvetica;fontSize=11;fontColor=default;labelBackgroundColor=default;" vertex="1" parent="1">
          <mxGeometry x="376" y="720" width="120" height="40" as="geometry" />
        </mxCell>
        <mxCell id="jHHYnB5XeiIA4RbSCAga-47" style="shape=connector;rounded=0;orthogonalLoop=1;jettySize=auto;html=1;strokeColor=default;align=center;verticalAlign=middle;fontFamily=Helvetica;fontSize=11;fontColor=default;labelBackgroundColor=default;endArrow=none;endFill=0;" edge="1" parent="1" source="jHHYnB5XeiIA4RbSCAga-42" target="jHHYnB5XeiIA4RbSCAga-33">
          <mxGeometry relative="1" as="geometry" />
        </mxCell>
        <mxCell id="jHHYnB5XeiIA4RbSCAga-42" value="Código&lt;div&gt;ID&lt;/div&gt;" style="ellipse;whiteSpace=wrap;html=1;align=center;strokeColor=default;verticalAlign=middle;fontFamily=Helvetica;fontSize=11;fontColor=default;labelBackgroundColor=default;fillColor=default;" vertex="1" parent="1">
          <mxGeometry x="530" y="480" width="80" height="40" as="geometry" />
        </mxCell>
        <mxCell id="jHHYnB5XeiIA4RbSCAga-48" style="shape=connector;rounded=0;orthogonalLoop=1;jettySize=auto;html=1;strokeColor=default;align=center;verticalAlign=middle;fontFamily=Helvetica;fontSize=11;fontColor=default;labelBackgroundColor=default;endArrow=none;endFill=0;" edge="1" parent="1" source="jHHYnB5XeiIA4RbSCAga-43" target="jHHYnB5XeiIA4RbSCAga-33">
          <mxGeometry relative="1" as="geometry" />
        </mxCell>
        <mxCell id="jHHYnB5XeiIA4RbSCAga-43" value="Título" style="ellipse;whiteSpace=wrap;html=1;align=center;strokeColor=default;verticalAlign=middle;fontFamily=Helvetica;fontSize=11;fontColor=default;labelBackgroundColor=default;fillColor=default;" vertex="1" parent="1">
          <mxGeometry x="396" y="410" width="80" height="40" as="geometry" />
        </mxCell>
        <mxCell id="jHHYnB5XeiIA4RbSCAga-51" style="edgeStyle=none;shape=connector;rounded=0;orthogonalLoop=1;jettySize=auto;html=1;strokeColor=default;align=center;verticalAlign=middle;fontFamily=Helvetica;fontSize=11;fontColor=default;labelBackgroundColor=default;endArrow=none;endFill=0;" edge="1" parent="1" source="jHHYnB5XeiIA4RbSCAga-46" target="jHHYnB5XeiIA4RbSCAga-33">
          <mxGeometry relative="1" as="geometry" />
        </mxCell>
        <mxCell id="jHHYnB5XeiIA4RbSCAga-46" value="Ano&lt;div&gt;Publicação&lt;/div&gt;" style="ellipse;whiteSpace=wrap;html=1;align=center;strokeColor=default;verticalAlign=middle;fontFamily=Helvetica;fontSize=11;fontColor=default;labelBackgroundColor=default;fillColor=default;" vertex="1" parent="1">
          <mxGeometry x="260" y="480" width="80" height="40" as="geometry" />
        </mxCell>
        <mxCell id="jHHYnB5XeiIA4RbSCAga-59" style="edgeStyle=none;shape=connector;rounded=0;orthogonalLoop=1;jettySize=auto;html=1;strokeColor=default;align=center;verticalAlign=middle;fontFamily=Helvetica;fontSize=11;fontColor=default;labelBackgroundColor=default;endArrow=none;endFill=0;" edge="1" parent="1" source="jHHYnB5XeiIA4RbSCAga-54" target="jHHYnB5XeiIA4RbSCAga-34">
          <mxGeometry relative="1" as="geometry" />
        </mxCell>
        <mxCell id="jHHYnB5XeiIA4RbSCAga-54" value="Nome" style="ellipse;whiteSpace=wrap;html=1;align=center;strokeColor=default;verticalAlign=middle;fontFamily=Helvetica;fontSize=11;fontColor=default;labelBackgroundColor=default;fillColor=default;" vertex="1" parent="1">
          <mxGeometry x="110" y="250" width="80" height="40" as="geometry" />
        </mxCell>
        <mxCell id="jHHYnB5XeiIA4RbSCAga-57" style="edgeStyle=none;shape=connector;rounded=0;orthogonalLoop=1;jettySize=auto;html=1;strokeColor=default;align=center;verticalAlign=middle;fontFamily=Helvetica;fontSize=11;fontColor=default;labelBackgroundColor=default;endArrow=none;endFill=0;" edge="1" parent="1" source="jHHYnB5XeiIA4RbSCAga-55" target="jHHYnB5XeiIA4RbSCAga-34">
          <mxGeometry relative="1" as="geometry" />
        </mxCell>
        <mxCell id="jHHYnB5XeiIA4RbSCAga-55" value="Nacionalidade" style="ellipse;whiteSpace=wrap;html=1;align=center;strokeColor=default;verticalAlign=middle;fontFamily=Helvetica;fontSize=11;fontColor=default;labelBackgroundColor=default;fillColor=default;" vertex="1" parent="1">
          <mxGeometry x="210" y="210" width="80" height="40" as="geometry" />
        </mxCell>
        <mxCell id="jHHYnB5XeiIA4RbSCAga-58" style="edgeStyle=none;shape=connector;rounded=0;orthogonalLoop=1;jettySize=auto;html=1;strokeColor=default;align=center;verticalAlign=middle;fontFamily=Helvetica;fontSize=11;fontColor=default;labelBackgroundColor=default;endArrow=none;endFill=0;" edge="1" parent="1" source="jHHYnB5XeiIA4RbSCAga-56" target="jHHYnB5XeiIA4RbSCAga-34">
          <mxGeometry relative="1" as="geometry" />
        </mxCell>
        <mxCell id="jHHYnB5XeiIA4RbSCAga-56" value="Data&lt;div&gt;Nascimento&lt;/div&gt;" style="ellipse;whiteSpace=wrap;html=1;align=center;strokeColor=default;verticalAlign=middle;fontFamily=Helvetica;fontSize=11;fontColor=default;labelBackgroundColor=default;fillColor=default;" vertex="1" parent="1">
          <mxGeometry x="310" y="250" width="80" height="40" as="geometry" />
        </mxCell>
        <mxCell id="jHHYnB5XeiIA4RbSCAga-64" style="edgeStyle=none;shape=connector;rounded=0;orthogonalLoop=1;jettySize=auto;html=1;strokeColor=default;align=center;verticalAlign=middle;fontFamily=Helvetica;fontSize=11;fontColor=default;labelBackgroundColor=default;endArrow=none;endFill=0;" edge="1" parent="1" source="jHHYnB5XeiIA4RbSCAga-60" target="jHHYnB5XeiIA4RbSCAga-35">
          <mxGeometry relative="1" as="geometry" />
        </mxCell>
        <mxCell id="jHHYnB5XeiIA4RbSCAga-60" value="Nome" style="ellipse;whiteSpace=wrap;html=1;align=center;strokeColor=default;verticalAlign=middle;fontFamily=Helvetica;fontSize=11;fontColor=default;labelBackgroundColor=default;fillColor=default;" vertex="1" parent="1">
          <mxGeometry x="650" y="220" width="80" height="40" as="geometry" />
        </mxCell>
        <mxCell id="jHHYnB5XeiIA4RbSCAga-65" style="edgeStyle=none;shape=connector;rounded=0;orthogonalLoop=1;jettySize=auto;html=1;strokeColor=default;align=center;verticalAlign=middle;fontFamily=Helvetica;fontSize=11;fontColor=default;labelBackgroundColor=default;endArrow=none;endFill=0;" edge="1" parent="1" source="jHHYnB5XeiIA4RbSCAga-61" target="jHHYnB5XeiIA4RbSCAga-35">
          <mxGeometry relative="1" as="geometry" />
        </mxCell>
        <mxCell id="jHHYnB5XeiIA4RbSCAga-61" value="Morada" style="ellipse;whiteSpace=wrap;html=1;align=center;strokeColor=default;verticalAlign=middle;fontFamily=Helvetica;fontSize=11;fontColor=default;labelBackgroundColor=default;fillColor=default;" vertex="1" parent="1">
          <mxGeometry x="680" y="270" width="80" height="40" as="geometry" />
        </mxCell>
        <mxCell id="jHHYnB5XeiIA4RbSCAga-66" style="edgeStyle=none;shape=connector;rounded=0;orthogonalLoop=1;jettySize=auto;html=1;strokeColor=default;align=center;verticalAlign=middle;fontFamily=Helvetica;fontSize=11;fontColor=default;labelBackgroundColor=default;endArrow=none;endFill=0;" edge="1" parent="1" source="jHHYnB5XeiIA4RbSCAga-62" target="jHHYnB5XeiIA4RbSCAga-35">
          <mxGeometry relative="1" as="geometry" />
        </mxCell>
        <mxCell id="jHHYnB5XeiIA4RbSCAga-62" value="Telefone(s)" style="ellipse;whiteSpace=wrap;html=1;align=center;strokeColor=default;verticalAlign=middle;fontFamily=Helvetica;fontSize=11;fontColor=default;labelBackgroundColor=default;fillColor=default;" vertex="1" parent="1">
          <mxGeometry x="560" y="210" width="80" height="40" as="geometry" />
        </mxCell>
        <mxCell id="jHHYnB5XeiIA4RbSCAga-67" style="edgeStyle=none;shape=connector;rounded=0;orthogonalLoop=1;jettySize=auto;html=1;strokeColor=default;align=center;verticalAlign=middle;fontFamily=Helvetica;fontSize=11;fontColor=default;labelBackgroundColor=default;endArrow=none;endFill=0;" edge="1" parent="1" source="jHHYnB5XeiIA4RbSCAga-63" target="jHHYnB5XeiIA4RbSCAga-35">
          <mxGeometry relative="1" as="geometry" />
        </mxCell>
        <mxCell id="jHHYnB5XeiIA4RbSCAga-63" value="NIF" style="ellipse;whiteSpace=wrap;html=1;align=center;strokeColor=default;verticalAlign=middle;fontFamily=Helvetica;fontSize=11;fontColor=default;labelBackgroundColor=default;fillColor=default;" vertex="1" parent="1">
          <mxGeometry x="470" y="230" width="80" height="40" as="geometry" />
        </mxCell>
        <mxCell id="jHHYnB5XeiIA4RbSCAga-74" style="edgeStyle=none;shape=connector;rounded=0;orthogonalLoop=1;jettySize=auto;html=1;strokeColor=default;align=center;verticalAlign=middle;fontFamily=Helvetica;fontSize=11;fontColor=default;labelBackgroundColor=default;endArrow=none;endFill=0;" edge="1" parent="1" source="jHHYnB5XeiIA4RbSCAga-70" target="jHHYnB5XeiIA4RbSCAga-36">
          <mxGeometry relative="1" as="geometry" />
        </mxCell>
        <mxCell id="jHHYnB5XeiIA4RbSCAga-70" value="Nome" style="ellipse;whiteSpace=wrap;html=1;align=center;strokeColor=default;verticalAlign=middle;fontFamily=Helvetica;fontSize=11;fontColor=default;labelBackgroundColor=default;fillColor=default;" vertex="1" parent="1">
          <mxGeometry x="276" y="680" width="80" height="40" as="geometry" />
        </mxCell>
        <mxCell id="jHHYnB5XeiIA4RbSCAga-75" style="edgeStyle=none;shape=connector;rounded=0;orthogonalLoop=1;jettySize=auto;html=1;strokeColor=default;align=center;verticalAlign=middle;fontFamily=Helvetica;fontSize=11;fontColor=default;labelBackgroundColor=default;endArrow=none;endFill=0;" edge="1" parent="1" source="jHHYnB5XeiIA4RbSCAga-71" target="jHHYnB5XeiIA4RbSCAga-36">
          <mxGeometry relative="1" as="geometry" />
        </mxCell>
        <mxCell id="jHHYnB5XeiIA4RbSCAga-71" value="Num&lt;div&gt;Cartão de cidadão&amp;nbsp;&lt;/div&gt;" style="ellipse;whiteSpace=wrap;html=1;align=center;strokeColor=default;verticalAlign=middle;fontFamily=Helvetica;fontSize=11;fontColor=default;labelBackgroundColor=default;fillColor=default;" vertex="1" parent="1">
          <mxGeometry x="250" y="760" width="126" height="40" as="geometry" />
        </mxCell>
        <mxCell id="jHHYnB5XeiIA4RbSCAga-76" style="edgeStyle=none;shape=connector;rounded=0;orthogonalLoop=1;jettySize=auto;html=1;strokeColor=default;align=center;verticalAlign=middle;fontFamily=Helvetica;fontSize=11;fontColor=default;labelBackgroundColor=default;endArrow=none;endFill=0;" edge="1" parent="1" source="jHHYnB5XeiIA4RbSCAga-72" target="jHHYnB5XeiIA4RbSCAga-36">
          <mxGeometry relative="1" as="geometry" />
        </mxCell>
        <mxCell id="jHHYnB5XeiIA4RbSCAga-72" value="Telefone" style="ellipse;whiteSpace=wrap;html=1;align=center;strokeColor=default;verticalAlign=middle;fontFamily=Helvetica;fontSize=11;fontColor=default;labelBackgroundColor=default;fillColor=default;" vertex="1" parent="1">
          <mxGeometry x="522" y="760" width="80" height="40" as="geometry" />
        </mxCell>
        <mxCell id="jHHYnB5XeiIA4RbSCAga-77" style="edgeStyle=none;shape=connector;rounded=0;orthogonalLoop=1;jettySize=auto;html=1;strokeColor=default;align=center;verticalAlign=middle;fontFamily=Helvetica;fontSize=11;fontColor=default;labelBackgroundColor=default;endArrow=none;endFill=0;" edge="1" parent="1" source="jHHYnB5XeiIA4RbSCAga-73" target="jHHYnB5XeiIA4RbSCAga-36">
          <mxGeometry relative="1" as="geometry" />
        </mxCell>
        <mxCell id="jHHYnB5XeiIA4RbSCAga-73" value="Email" style="ellipse;whiteSpace=wrap;html=1;align=center;strokeColor=default;verticalAlign=middle;fontFamily=Helvetica;fontSize=11;fontColor=default;labelBackgroundColor=default;fillColor=default;" vertex="1" parent="1">
          <mxGeometry x="522" y="680" width="80" height="40" as="geometry" />
        </mxCell>
        <mxCell id="jHHYnB5XeiIA4RbSCAga-83" style="edgeStyle=none;shape=connector;rounded=0;orthogonalLoop=1;jettySize=auto;html=1;strokeColor=default;align=center;verticalAlign=middle;fontFamily=Helvetica;fontSize=11;fontColor=default;labelBackgroundColor=default;endArrow=none;endFill=0;" edge="1" parent="1" source="jHHYnB5XeiIA4RbSCAga-82" target="jHHYnB5XeiIA4RbSCAga-87">
          <mxGeometry relative="1" as="geometry">
            <mxPoint x="490" y="605" as="targetPoint" />
          </mxGeometry>
        </mxCell>
        <mxCell id="jHHYnB5XeiIA4RbSCAga-82" value="Data&lt;div&gt;Requisiçao&lt;/div&gt;" style="ellipse;whiteSpace=wrap;html=1;align=center;strokeColor=default;verticalAlign=middle;fontFamily=Helvetica;fontSize=11;fontColor=default;labelBackgroundColor=default;fillColor=default;" vertex="1" parent="1">
          <mxGeometry x="260" y="600" width="80" height="40" as="geometry" />
        </mxCell>
        <mxCell id="jHHYnB5XeiIA4RbSCAga-93" style="edgeStyle=none;shape=connector;rounded=0;orthogonalLoop=1;jettySize=auto;html=1;strokeColor=default;align=center;verticalAlign=middle;fontFamily=Helvetica;fontSize=11;fontColor=default;labelBackgroundColor=default;endArrow=none;endFill=0;startArrow=ERmany;startFill=0;" edge="1" parent="1" source="jHHYnB5XeiIA4RbSCAga-33" target="jHHYnB5XeiIA4RbSCAga-87">
          <mxGeometry relative="1" as="geometry">
            <mxPoint x="340" y="500" as="targetPoint" />
          </mxGeometry>
        </mxCell>
        <mxCell id="jHHYnB5XeiIA4RbSCAga-103" style="edgeStyle=none;shape=connector;rounded=0;orthogonalLoop=1;jettySize=auto;html=1;strokeColor=default;align=center;verticalAlign=middle;fontFamily=Helvetica;fontSize=11;fontColor=default;labelBackgroundColor=default;endArrow=ERmany;endFill=0;" edge="1" parent="1" source="jHHYnB5XeiIA4RbSCAga-87" target="jHHYnB5XeiIA4RbSCAga-36">
          <mxGeometry relative="1" as="geometry" />
        </mxCell>
        <mxCell id="jHHYnB5XeiIA4RbSCAga-87" value="Requisição" style="shape=rhombus;perimeter=rhombusPerimeter;whiteSpace=wrap;html=1;align=center;strokeColor=default;verticalAlign=middle;fontFamily=Helvetica;fontSize=11;fontColor=default;labelBackgroundColor=default;fillColor=default;" vertex="1" parent="1">
          <mxGeometry x="376" y="590" width="120" height="60" as="geometry" />
        </mxCell>
        <mxCell id="jHHYnB5XeiIA4RbSCAga-97" style="edgeStyle=none;shape=connector;rounded=0;orthogonalLoop=1;jettySize=auto;html=1;strokeColor=default;align=center;verticalAlign=middle;fontFamily=Helvetica;fontSize=11;fontColor=default;labelBackgroundColor=default;endArrow=none;endFill=0;startArrow=ERmany;startFill=0;" edge="1" parent="1" source="jHHYnB5XeiIA4RbSCAga-34" target="jHHYnB5XeiIA4RbSCAga-95">
          <mxGeometry relative="1" as="geometry" />
        </mxCell>
        <mxCell id="jHHYnB5XeiIA4RbSCAga-95" value="Escrito" style="shape=rhombus;perimeter=rhombusPerimeter;whiteSpace=wrap;html=1;align=center;strokeColor=default;verticalAlign=middle;fontFamily=Helvetica;fontSize=11;fontColor=default;labelBackgroundColor=default;fillColor=default;" vertex="1" parent="1">
          <mxGeometry x="190" y="370" width="120" height="60" as="geometry" />
        </mxCell>
        <mxCell id="jHHYnB5XeiIA4RbSCAga-100" style="edgeStyle=none;shape=connector;rounded=0;orthogonalLoop=1;jettySize=auto;html=1;strokeColor=default;align=center;verticalAlign=middle;fontFamily=Helvetica;fontSize=11;fontColor=default;labelBackgroundColor=default;endArrow=none;endFill=0;startArrow=ERone;startFill=0;" edge="1" parent="1" source="jHHYnB5XeiIA4RbSCAga-35" target="jHHYnB5XeiIA4RbSCAga-98">
          <mxGeometry relative="1" as="geometry">
            <mxPoint x="569.4545454545455" y="352.72727272727275" as="targetPoint" />
          </mxGeometry>
        </mxCell>
        <mxCell id="jHHYnB5XeiIA4RbSCAga-98" value="Publicado" style="shape=rhombus;perimeter=rhombusPerimeter;whiteSpace=wrap;html=1;align=center;strokeColor=default;verticalAlign=middle;fontFamily=Helvetica;fontSize=11;fontColor=default;labelBackgroundColor=default;fillColor=default;" vertex="1" parent="1">
          <mxGeometry x="530" y="370" width="120" height="60" as="geometry" />
        </mxCell>
        <mxCell id="jHHYnB5XeiIA4RbSCAga-102" style="edgeStyle=none;shape=connector;rounded=0;orthogonalLoop=1;jettySize=auto;html=1;strokeColor=default;align=center;verticalAlign=middle;fontFamily=Helvetica;fontSize=11;fontColor=default;labelBackgroundColor=default;endArrow=none;endFill=0;" edge="1" parent="1" source="jHHYnB5XeiIA4RbSCAga-101" target="jHHYnB5XeiIA4RbSCAga-87">
          <mxGeometry relative="1" as="geometry">
            <mxPoint x="490" y="645" as="targetPoint" />
          </mxGeometry>
        </mxCell>
        <mxCell id="jHHYnB5XeiIA4RbSCAga-101" value="Data&lt;div&gt;Devolução&lt;/div&gt;" style="ellipse;whiteSpace=wrap;html=1;align=center;strokeColor=default;verticalAlign=middle;fontFamily=Helvetica;fontSize=11;fontColor=default;labelBackgroundColor=default;fillColor=default;" vertex="1" parent="1">
          <mxGeometry x="530" y="600" width="80" height="40" as="geometry" />
        </mxCell>
      </root>
    </mxGraphModel>
  </diagram>
</mxfile>
